<svg xmlns="http://www.w3.org/2000/svg" viewBox="0 0 48 48" width="96" height="48" fill="#fff">
  <!-- Pulgar hacia arriba -->
  <g id="pulgar-arriba">
    <path d="M24 3C12.27 3 3 12.27 3 24s9.27 21 21 21 21-9.27 21-21S35.73 3 24 3zm0 38c-9.94 0-18-8.06-18-18S14.06 5 24 5s18 8.06 18 18-8.06 18-18 18z"/>
    <path d="M24 7c-.76 0-1.48.07-2.2.18-.22.04-.44.08-.66.13-.26.06-.51.13-.77.2-.18.05-.35.12-.52.19-.3.11-.59.23-.88.35-.15.06-.29.13-.44.2-.33.16-.66.33-1 0v-9.9c0-.28-.11-.54-.29-.72-.18-.18-.43-.29-.71-.29s-.54.11-.72.29L9.7 17.71c-.39.39-1.02.39-1.41 0s-.39-1.02 0-1.41L21.29 4.7c.39-.39 1.02-.39 1.41 0l12.58 12.58c.39.39.39 1.02 0 1.41s-1.02.39-1.41 0l-3.58-3.58c-.19-.19-.43-.29-.69-.29z"/>
  </g>

  <!-- Pulgar hacia abajo -->
  <g id="pulgar-abajo" transform="translate(48, 0) scale(-1, 1)">
    <path d="M24 3C12.27 3 3 12.27 3 24s9.27 21 21 21 21-9.27 21-21S35.73 3 24 3zm0 38c-9.94 0-18-8.06-18-18S14.06 5 24 5s18 8.06 18 18-8.06 18-18 18z"/>
    <path d="M24 7c-.76 0-1.48.07-2.2.18-.22.04-.44.08-.66.13-.26.06-.51.13-.77.2-.18.05-.35.12-.52.19-.3.11-.59.23-.88.35-.15.06-.29.13-.44.2-.33.16-.66.33-1 0v-9.9c0-.28-.11-.54-.29-.72-.18-.18-.43-.29-.71-.29s-.54.11-.72.29L9.7 17.71c-.39.39-1.02.39-1.41 0s-.39-1.02 0-1.41L21.29 4.7c.39-.39 1.02-.39 1.41 0l12.58 12.58c.39.39.39 1.02 0 1.41s-1.02.39-1.41 0l-3.58-3.58c-.19-.19-.43-.29-.69-.29z"/>
  </g>
</svg>